/* XPM */
static const char * autoprint_xpm[] = {
"20 20 11 1",
" 	c None",
".	c #800000",
"+	c #040404",
"@	c #808080",
"#	c #FFFFFF",
"$	c #808304",
"%	c #000000",
"&	c #F3F7F3",
"*	c #C6C3C6",
"=	c #848284",
"-	c #FFFF00",
"      .  +++++++    ",
"      @. +#####++   ",
"    @....+#####+#+  ",
"   .. @. +#####+##+ ",
"  .@  .  +#$$##++++%",
" @.      +#&###&###%",
" .   %%%%%%%%%#####%",
" .  %########%#$$##%",
" .  %#%%%%%#%######%",
"   %########%######%",
"   %#%%%%%#%%%%$$##%",
"  %########%*%*%###%",
" %%%%%%%%%%*%*%%###%",
"%**********%*%*%###%",
"%%%%%%%%%%%%%**%%%%%",
"%******===**%*%     ",
"%******---**%%%     ",
"%%%%%%%%%%%%%*%     ",
" %*********%*%      ",
"  %%%%%%%%%%%       "};
