/* XPM */
static const char *cmsIguana_xpm[] = {
"90 86 73 1",
" 	c None",
".	c #00A5D6",
"+	c #05A5D5",
"@	c #15A5CE",
"#	c #2CA9D0",
"$	c #6DB8C9",
"%	c #98BFBF",
"&	c #D0CDCE",
"*	c #EED8C9",
"=	c #FEE2C9",
"-	c #FFE2C9",
";	c #01A5D5",
">	c #A3C6C7",
",	c #FEE0C7",
"'	c #FAC1A6",
")	c #F7AF94",
"!	c #18AAD5",
"~	c #F49F83",
"{	c #EC6C4E",
"]	c #E74A2A",
"^	c #EF7D5F",
"/	c #4FADC6",
"(	c #FAE1CC",
"_	c #FCD1B8",
":	c #F28E71",
"<	c #01A5D6",
"[	c #337BA6",
"}	c #2E5886",
"|	c #326A97",
"1	c #285078",
"2	c #348CB6",
"3	c #0BA7D5",
"4	c #506C90",
"5	c #9D9B99",
"6	c #083068",
"7	c #827F83",
"8	c #349BC4",
"9	c #FFE1C9",
"0	c #8C8A8C",
"a	c #E29161",
"b	c #F2CCAA",
"c	c #67A1AB",
"d	c #EB603E",
"e	c #E85737",
"f	c #E8502F",
"g	c #F0B09C",
"h	c #EA5B3C",
"i	c #DA7156",
"j	c #D6725B",
"k	c #E96B4B",
"l	c #C1BF47",
"m	c #A7A56A",
"n	c #2EA5B8",
"o	c #FFBD22",
"p	c #FABC2B",
"q	c #FEBD25",
"r	c #FEC139",
"s	c #FAB14F",
"t	c #EDE1D7",
"u	c #F9BD34",
"v	c #F1EDF2",
"w	c #EC725A",
"x	c #EF8671",
"y	c #EA5F42",
"z	c #359D59",
"A	c #57A463",
"B	c #299C52",
"C	c #000000",
"D	c #008000",
"E	c #00B300",
"F	c #009500",
"G	c #006A00",
"H	c #004600",
"                                                                                          ",
".......+@#$%&*=---------------------------------------------------------------------------",
"............;+#$>*,-----------------------------------------------------------------------",
".................+#$&,-----------------------------------------------------------')-------",
"....................;!$&,------------------------------------------------------~{])-------",
".......................;#$*=------------------------------------------------'~^]]])-------",
"..........................+/>,--------------------------------------------~{]]]{'')-------",
".............................#>(----------------------------------------_{]]{:')--_-------",
"..........+####!<.....<........!%(---------(**(---------------------------^^)--)----------",
"........![}||[}1|23..!4+.........!>5=----*4}4}67(---------------------------':~:_-'-------",
"......<81|#+..<#|}+..#68..........21&9--*10(-=>1(-----------------------------_::^)-------",
"......86|!......3#...86}3........!16#/*-01(-999&---------------------------------')-------",
".....#66!............2668........[66#.3%}}=-9-9--------------,ab--------_-----------------",
".....[6[.............[c6}3......#}268..;}6*----9------------,ad,--------)'----------------",
"....3168.............|8[68......[2262...[64*-9--9-----------aeb9--------):)))){]]{_-------",
"....#66#............<}##6}3....#}!86[...!1660&=-----------9afb-9--------'----:]]]_--------",
"....#66!............31#.[62...+|8.#6[....![6664&---------9gfb9-9-----------'h]]~----------",
"....#66!............#1!.!11!..8|3.#6|......!2166&-------9gfb99------------)]]h)-----------",
"....!66#............#13..26[.3|8..!6}+.......!|64=-----9gfb-9-9----------:]]]'------------",
"....<|62............2}...!16#8|+..311!........!6}=----9afb---9----------)]]^-----')-------",
".....26}+...........[|....26|}#...<}6#.........1}$,--,afb9999-----------)]^~))))){)-------",
".....3}68........3..|[....!16|+....|6#.</.....#6[;$=,afb-9-99-----------)'--------)-------",
"......#168+....<#/.<}[.....268.....|68.!18...+[1!.;%aeb99-9--9----------------------------",
".......![6|2##2|18.!62.....!4+.....[62.!16[88|}#..#idb99-------------------------')-------",
"........<#2[|[[8!..!8#......!......#8#..!8[|[83../di/>---9999------------------~{])-------",
"...............................................<cej#.3&-9-99-9-9------------'~^]]])-------",
"..............................................35fj!...!*-9----99----------~{]]]{'')-------",
".............................................!5]53.....#(----9-9--------_{]]{:')--_-------",
"............................................#jfc+......;$99999------------^^)--)----------",
".........................................../kk/.........+>-99-9gb-----------':~:_-'-------",
"lmm0cn3;.................................+5fj#...........@*--9g]b-------------_::^)-------",
"ooooooplmc@.............................!m]5!............./99g]g-----------------')-------",
"ooooooooooplc@;.......................;/iec+..............;>g]g=--------_-----------------",
"ooooooooooooopmn;....................35ej/................#jfg-9--------)'----------------",
"oooooooooooooooqlc;.................#j]5!...............;/ie>---9-------):)))))):_--------",
"oooooooooooooooooolc;.............+cddc;...............35ej/3*9---------'-------_^--------",
"oooooooooooooooooooqln...........#5]j#................#j]5!..$99-----------------^)-------",
"ooooooooooooooooooooop0+.......+cke53...............!5ekc;...+&-9-------_--------^)-------",
"oooooooooooooooooooooooln.....#m]j#;..............+cjf5#....../99-------)-------'])-------",
"oooooooooooooooooooooooopc;.3cddc3..............;/j]j/;.......+&--------)]]]]]]]]{--------",
"oooooooooooooooooooooooooqm/j]m#..............</mfic3..........$9-------)]]]]]]]{_--------",
"ooooooooooooooooooooooooorafic+.............+/jfk5!.........!!.3*-------)'----------------",
"ooooooooooooooooooooooopsdesl3............!cj]i5!..........3j5..$-------_-----'-----------",
"qooooooooooooooooooooosk]arool3........+/5k]jc!...........;5]/..!(------------h-----------",
"t*bbsuoooooooooooooousfksqoooom+....+#5j]d5/+.............#e5;..;>------_{h:--]]]]--------",
"vvvvvv*guooooooooooskfauooooooom;3/5jfejc!...............!jk#..../9------]'---]]]])-------",
"vvvvvvvvv*spoooooqseksoooooooussjk]djc#.................!je/.....3*-----){----{--:)-------",
"vvvvvvvvvvvtsqoora]arooooorsad]ekm/!...................!jfc;......>-----)^----'---)-------",
"vvvvvvvvvvvvv*srkesqooopsad]kasrol+.................../iec......../-----)h-------^)-------",
"vvvvvvvvvvvvvv*dksooorsk]kssqooooo0.................35ei/.........3*-----{{:))):w]_-------",
"vvvvvvvvvvvvvbfa*uorsdfaspoooooooopn..............;/j]m!..........;>------h]]]]]]'--------",
"vvvvvvvvvvvvg]gvvtsdearoooooooooooom;...........</mfic+............$------_~^^^~_---------",
"vvvvvvvvvvvg]gvv*kfarooooooooooooooqn.........!cjfk5!..............@,---------------------",
"vvvvvvvvvvg]gvva]attrooooooooooooooom;....;!/5k]jc!................;&---)'-------')-------",
"vvvvvvvvvg]gv*ddbvvvtuooooooooooooooqn3#/5jd]k5/3...................>---)hxxxxxxxy)-------",
"&&&tvvvvb]gvg]avvvvvvbssssssssssssssaike]dj5/!......................$---)]]]]]]]]])-------",
"zAAc%&&*fgvafgvvvtbakf]fedddeefffedkka5c/!;.........................#=--):))))))):)-------",
"BBBBBA5eatkd*vvgi]eag*tsrupurrrrrruqooc................##...........+*--'---------'-------",
"BBBBBAkigdkttgeea*vvvvvboooooooooooooom...............#im.#########C#>C-------------------",
"BBBBzjemei&gfkgvvvvvvvvvuooooooooooooop@.............3jd#.#####C###CC$-C--CCCC------------",
"BBBBm]gejmddgvvvvvvvvvvvboooooooooooooon............+5fc..######C##CDC-CCCEEEECC----------",
"BBBAeadaa]j5&vvt*bbggbb**ruqooooooooooom...........35]5;..##C###CC##CCCEEEFFFFEEC---------",
"BBzjkkkddmAmake]]fdddde]]fdkassroooooool;.........#m]5+#####CC##CDCCEEEFFFDCCCGDECC-------",
"Azm]d]fimjffiab*vvvvvvvvtgsake]dkassrpqu+......!C5dec.###C##CDC##CEEFGCDDDDCCCGGDEEC------",
"lld]]]kk]jmAB5&vvvvvvvvvvtooqossake]ekkam555Cmjk]C5..C###CC##CDCCEFFDGCDDDDCCCGGGFFEC-----",
"la]]]]fjABBBBA&vvvvvvvvvvvuoooooooosssakCkkkkCj5cCC..CC##CDC#CCEEFDDGCDDDDDDDDDDDDDFEC----",
"ld]]]iABBBBBBB%vvvvvvvvvvvsoooooooooCoooCC..CDC..CDC.CDC#CCCCEEFFDDDGCGDDDDDDDDDDDDDFEC---",
"a]]falABBBBBBBc&vvvvvvvvvvgoooooCoooCCooCDC.CDCCCCCCCCCCCCEEEFFDDDDGGCGFEDDDDDDDDDDDDFC---",
"k]emllmzBBBBBBA&vvvvvvvvvvbCooooCCooCDCoCCCCCCCEEEEEEEEEEEFFFDDDDDDGGCHFFGGGGGGGGGGGGGC---",
"]egmlllABBBBBBz&vvvvvvvCvv*CCoooCDCCCCCCCEEEEEEFFFFFFFFFFFFDDDDDDDGGCGCHHHHHHHHHHHHHCC----",
"fg>mlllABBBBBBB>vvvvvvCDCv*CDCoCCCCEEEEEEFFFFFFFFFFFFDDDDDDDDDDDDDGGCDHCCCCCCCCCCCCC------",
">>>mlllABBBBBBB>vvCCvvCDCCCCCCCEEEEFFFFFFFFFDDDDDDDDDDDDDDDDDDDDDGGHCDGHHHHHHHHHHCC-------",
">>mlllmABBBBBBC&vvCDCCCCEEEEEEEFFFFFFFDDDDDDDDDDDDDDDDDDDDDDDDDDGGHCDDDGGHHHHHCCC---------",
"mmllllAzBBCBBCDCvCCCEEEEFFFFFFFFFDDDDDDDDDDDDDDDDDDDDDDDDDDDDDDDGGHCGGGGGGHHCC------------",
"llllllABBBCCBCCCCEEEFFFFFFFDDDDDDDDDDDDDDDDDDDDDDDDDDDDDGCFDDDGHGHC-CHHHHCCC--------------",
"lllllACBBBCDCCEEEFFFFDDDDDDDDDDDDDDDDDDDDDDDDDDDDDDDDGGGCFDDDGHCHC---CCCC-----------------",
"lllmACDCBCCCEECCCCCCCCCCDDDDDDDDDDDDDDDDDDDDDDDDDGGGGGHCFDDDGHCHC-------------------------",
"AzzzBCCCCEEEFFFFFFFFFFFFCCDDDDDDDDDDDDDDDDDDGGGGGGGGGHCFDDDGHCHC--------------------------",
"CCzCCCEEEFFFDDDDDDDDDDDDFFCCGGGGGGGGGGGGGGGGGGGGHHHHHHCFDDGHCCC---------------------------",
"CCCCCFFFFDDGGGGGGGGGGDDDDDFFCGGGGGGGGGHHHHHHHHHHHHHHHCFDDGHC------------------------------",
"CCCCCDDDDDDHHHHHHHHHDDDDDDGGGCHHHHHHHHHHHHHHHHHHHCCCCCGDDDC-------------------------------",
"CCCCCDDDDDGGCCCCCCCDDDGGGGHHHCHHHHHHHHHHHCCCCCCCC-CHHCHGDDDCC-----------------------------",
"CCCCCDGGGGGHHCCCCDDDGGHHHHCCCCCCCCCCCCCCC----------CHHCHGDDDDCC---------------------------",
"CCCCCCGGHHHCCCDDDDDGCCCCCCCCC----------------------CHHHCHGGGDDDCCCCC----------------------",
"CCCCCCHHCCCCGGGGGGGGGGGGGGGGCC----------------------CHHHCCHHGGGGGGGGCCCCC-CC--------------",
"CCCCCCCCCCCCCCCCCCCCCCCCCCCCCCCC---------------------CCCCCCCCCCCCCCCCCCCCCC-C-------------"};
