/* XPM */
static const char * iguana_mini_xpm[] = {
"24 16 40 1",
" 	c None",
".	c #FFFFFF",
"+	c #CCCCCC",
"@	c #999999",
"#	c #336633",
"$	c #669966",
"%	c #666666",
"&	c #FFCCFF",
"*	c #CCFFCC",
"=	c #99CC99",
"-	c #339933",
";	c #FFFFCC",
">	c #666633",
",	c #66CC66",
"'	c #CCCCFF",
")	c #CCFFFF",
"!	c #336666",
"~	c #FFCCCC",
"{	c #669933",
"]	c #99FF99",
"^	c #999966",
"/	c #CC99CC",
"(	c #339966",
"_	c #9999CC",
":	c #99CCCC",
"<	c #99CC66",
"[	c #CCFF99",
"}	c #CC9999",
"|	c #996699",
"1	c #669999",
"2	c #CCCC99",
"3	c #99FFCC",
"4	c #99FF66",
"5	c #66CC99",
"6	c #666699",
"7	c #663366",
"8	c #333333",
"9	c #996666",
"0	c #66CC33",
"a	c #33CC33",
"........................",
"..###.......##..........",
".######.....#+..........",
"##....##....##..........",
"##.....##...##..........",
"+#......###..#!....#....",
".#+......######,..####..",
"..##......######,+##+#..",
"...##+.....#########....",
".....##..+.###########..",
"......#+..####.,###/###.",
"........+###....#,..,##.",
"........,#......##......",
".........##.............",
"..........,.............",
"........................"};
