/* XPM */
static const char * inverse_xpm[] = {
"22 22 4 1",
" 	c None",
".	c #060EA3",
"+	c #C0C0C0",
"@	c #800000",
"..                    ",
"...                   ",
" ...     .            ",
"  ...   ..            ",
"   ...  ..            ",
"    ..+...            ",
"     +....            ",
"     .....            ",
"   .......            ",
"  ........            ",
"                      ",
"                      ",
"            @@@@@@@@  ",
"            @@@@@@@   ",
"            @@@@@     ",
"            @@@@+     ",
"            @@@+@@    ",
"            @@  @@@   ",
"            @@   @@@  ",
"            @     @@@ ",
"                   @@@",
"                    @@"};
