/* XPM */
static const char *print_views_xpm[]={
"20 20 6 1",
"  c None",
". c #000000",
"c c #848284",
"b c #c6c3c6",
"d c #ffff00",
"a c #ffffff",
"                    ",
"        ........... ",
"        .aaaaaaaaa. ",
"       ..........a. ",
"       .aaaaaaaa.a. ",
"      .........a.a. ",
"     .aaaaaaaa.a.a. ",
"     .a.....a.aa.a. ",
"    .aaaaaaaa.a.a.  ",
"    .a.....a..a..   ",
"   .aaaaaaaa.b.b.   ",
"  ..........b.b..   ",
" .bbbbbbbbbb.b.b.   ",
" .............bb.   ",
" .bbbbbbcccbb.b.    ",
" .bbbbbbdddbb...    ",
" .............b.    ",
"  .bbbbbbbbb.b.     ",
"   ...........      ",
"                    "};
