/* XPM */
static const char * seek_xpm[] = {
"22 22 12 1",
" 	c None",
".	c #000000",
"+	c #005FBD",
"@	c #5EAEFF",
"#	c #7DBEFF",
"$	c #0080FF",
"%	c #FFFFFF",
"&	c #004080",
"*	c #FFFF00",
"=	c #A8A800",
"-	c #6D6D36",
";	c #FFFF80",
"                      ",
"               ...    ",
"              .+@+.   ",
"             .+#$$+.  ",
"            .+%$$$+.  ",
"           .+#$$$+&.  ",
"          .+@#@$+&.   ",
"         .+@%&$+&.    ",
"   .....+@@+.$+&.     ",
"  .$$$@@@&&$$+&.      ",
" .$@#%@@$$+&+&.       ",
" .&&+@#@$$$&&.        ",
" .**=&+@$$$$&.        ",
" -**;*&+@$$+.         ",
"  -**%%++@++.         ",
"   =%%%*&+@+.         ",
"    =%%**&+&.         ",
"     =***=+&.         ",
"      =-*=&.          ",
"        -..           ",
"                      ",
"                      "};
