/* XPM */
static const char * x_small_xpm[] = {
"24 24 131 2",
"  	c None",
". 	c #000000",
"+ 	c #CA0000",
"@ 	c #F30D0D",
"# 	c #F65454",
"$ 	c #F98585",
"% 	c #FAA2A2",
"& 	c #F64949",
"* 	c #F87575",
"= 	c #FA9F9F",
"- 	c #FBBABA",
"; 	c #FCBEBE",
"> 	c #9E0000",
", 	c #D20000",
"' 	c #F42A2A",
") 	c #F87272",
"! 	c #FA9A9A",
"~ 	c #FBACAC",
"{ 	c #F43131",
"] 	c #F75A5A",
"^ 	c #F98A8A",
"/ 	c #FBB1B1",
"( 	c #FCBBBB",
"_ 	c #7B0000",
": 	c #9C0000",
"< 	c #DB0000",
"[ 	c #F64545",
"} 	c #F98888",
"| 	c #FAA6A6",
"1 	c #F53636",
"2 	c #F64646",
"3 	c #F87373",
"4 	c #FAA0A0",
"5 	c #9B0000",
"6 	c #E40000",
"7 	c #F65757",
"8 	c #F99393",
"9 	c #FAA3A3",
"0 	c #F64F4F",
"a 	c #F64B4B",
"b 	c #F76161",
"c 	c #F98D8D",
"d 	c #F98E8E",
"e 	c #F86C6C",
"f 	c #F65151",
"g 	c #E90000",
"h 	c #F75D5D",
"i 	c #F98B8B",
"j 	c #FA9494",
"k 	c #F99191",
"l 	c #F76969",
"m 	c #F76363",
"n 	c #F76666",
"o 	c #F87C7C",
"p 	c #F87979",
"q 	c #F65252",
"r 	c #F53333",
"s 	c #F41F1F",
"t 	c #ED0000",
"u 	c #F98181",
"v 	c #F87F7F",
"w 	c #F87B7B",
"x 	c #F87E7E",
"y 	c #F54040",
"z 	c #F31C1C",
"A 	c #F20404",
"B 	c #AC0000",
"C 	c #F53D3D",
"D 	c #F86F6F",
"E 	c #F87878",
"F 	c #F76A6A",
"G 	c #F42424",
"H 	c #F20909",
"I 	c #840000",
"J 	c #BD0000",
"K 	c #EE0000",
"L 	c #F87070",
"M 	c #F75B5B",
"N 	c #F42727",
"O 	c #F10000",
"P 	c #F42D2D",
"Q 	c #F64C4C",
"R 	c #F76060",
"S 	c #F76767",
"T 	c #F76464",
"U 	c #8E0000",
"V 	c #B20000",
"W 	c #D60000",
"X 	c #F20303",
"Y 	c #F65555",
"Z 	c #8A0000",
"` 	c #A50000",
" .	c #BE0000",
"..	c #F53F3F",
"+.	c #8C0000",
"@.	c #9D0000",
"#.	c #AB0000",
"$.	c #B90000",
"%.	c #CD0000",
"&.	c #E60000",
"*.	c #F64848",
"=.	c #8D0000",
"-.	c #930000",
";.	c #960000",
">.	c #A70000",
",.	c #DF0000",
"'.	c #F42525",
").	c #7E0000",
"!.	c #860000",
"~.	c #7F0000",
"{.	c #AD0000",
"].	c #DE0000",
"^.	c #F53939",
"/.	c #FA9797",
"(.	c #810000",
"_.	c #880000",
":.	c #8B0000",
"<.	c #830000",
"[.	c #DD0000",
"}.	c #F54343",
"|.	c #F99090",
"1.	c #D80000",
"2.	c #F98787",
"3.	c #890000",
"4.	c #CF0000",
"5.	c #F42121",
"6.	c #C30000",
"7.	c #F20101",
"8.	c #F42B2B",
"9.	c #B50000",
"0.	c #800000",
"                                                ",
"  . . . . . .                     . . . . . .   ",
"  . + @ # $ % .                 . & * = - ; .   ",
"  . > , ' ) ! ~ .             . { ] ^ / ( ~ .   ",
"  . _ : < [ } | ~ .         . 1 2 3 4 / 4 $ .   ",
"  . _ _ 5 6 7 8 9 % .     . 0 a b c 4 d e f .   ",
"  . _ _ _ : g h i j k . . l m n o c p q r s .   ",
"    . _ _ _ > t f * u v p 3 * w x l y z A .     ",
"      . _ _ _ B t C b D 3 E x o F 2 G H .       ",
"        . _ _ I J K r q n ) E L M y N .         ",
"          . _ _ > + O P Q R S T 7 [ .           ",
"            . _ U V W X ' [ Y h M .             ",
"            . _ Z `  .W K s ..7 m .             ",
"          . _ _ +.@.#.$.%.&.z *.n * .           ",
"        . _ _ I =.-.;.5 >.J ,.'.M w } .         ",
"      . _ ).!.=.=.!.~._ ).=.{.].^.3 c /..       ",
"    . _ _ (._.:.<._ _ _ _ _ _ > [.}.w |./..     ",
"  . _ _ _ _ _ _ _ _ _ . . _ _ _ U 1.^.e v 2..   ",
"  . _ _ _ _ _ _ _ _ .     . _ _ _ 3.4.5.0 T .   ",
"  . _ _ _ _ _ _ _ .         . _ _ _ I 6.7.8..   ",
"  . _ _ _ _ _ _ .             . _ _ _ (.9.[..   ",
"  . _ _ _ _ _ .                 . _ _ _ 0.B .   ",
"  . . . . . .                     . . . . . .   ",
"                                                "};
