/* XPM */
static const char * xz_small_xpm[] = {
"20 21 2 1",
" 	c None",
".	c #000000",
".   .    .          ",
" . .    ...         ",
"  .    . . .        ",
" . .     .          ",
".   .    .          ",
"         .          ",
"         .          ",
"         .          ",
"         .       .  ",
"         .        . ",
"         ...........",
"     .  .         . ",
"     . .         .  ",
"     ..             ",
"     ....           ",
"                    ",
".   .          .....",
" . .              . ",
"  .              .  ",
"  .             .   ",
"  .            ....."};
