/* XPM */
static const char * y_small_xpm[] = {
"24 24 112 2",
"  	c None",
". 	c #000000",
"+ 	c #006CD8",
"@ 	c #0D86FF",
"# 	c #54AAFF",
"$ 	c #85C2FF",
"% 	c #A2D1FF",
"& 	c #49A4FF",
"* 	c #75BAFF",
"= 	c #9FCFFF",
"- 	c #BADDFF",
"; 	c #BEDFFF",
"> 	c #0056AB",
", 	c #0070DF",
"' 	c #2A95FF",
") 	c #72B9FF",
"! 	c #9ACDFF",
"~ 	c #ACD6FF",
"{ 	c #3198FF",
"] 	c #5AADFF",
"^ 	c #8AC5FF",
"/ 	c #B1D8FF",
"( 	c #BBDDFF",
"_ 	c #00458A",
": 	c #0054A8",
"< 	c #0074E8",
"[ 	c #43A1FF",
"} 	c #87C3FF",
"| 	c #A6D3FF",
"1 	c #369BFF",
"2 	c #46A3FF",
"3 	c #73B9FF",
"4 	c #A0D0FF",
"5 	c #AFD7FF",
"6 	c #84C2FF",
"7 	c #0050A0",
"8 	c #0075E9",
"9 	c #4EA7FF",
"0 	c #90C8FF",
"a 	c #A3D1FF",
"b 	c #4FA7FF",
"c 	c #4BA5FF",
"d 	c #61B0FF",
"e 	c #97CBFF",
"f 	c #82C1FF",
"g 	c #004890",
"h 	c #006FDE",
"i 	c #81C0FF",
"j 	c #6AB5FF",
"k 	c #64B2FF",
"l 	c #52A9FF",
"m 	c #2D96FF",
"n 	c #158AFF",
"o 	c #0783FF",
"p 	c #0066CC",
"q 	c #2291FF",
"r 	c #5DAEFF",
"s 	c #7BBDFF",
"t 	c #76BBFF",
"u 	c #6CB6FF",
"v 	c #2492FF",
"w 	c #007DF9",
"x 	c #0071E2",
"y 	c #005EBC",
"z 	c #3A9DFF",
"A 	c #168BFF",
"B 	c #0078EF",
"C 	c #006EDB",
"D 	c #0068D0",
"E 	c #0059B2",
"F 	c #0077ED",
"G 	c #2793FF",
"H 	c #4CA6FF",
"I 	c #58ACFF",
"J 	c #48A4FF",
"K 	c #1F8FFF",
"L 	c #007BF6",
"M 	c #0071E1",
"N 	c #0069D1",
"O 	c #005BB6",
"P 	c #1E8FFF",
"Q 	c #3098FF",
"R 	c #2190FF",
"S 	c #007FFE",
"T 	c #0076EB",
"U 	c #006DDA",
"V 	c #00468B",
"W 	c #0064C7",
"X 	c #007BF5",
"Y 	c #0F87FF",
"Z 	c #0058AF",
"` 	c #0073E5",
" .	c #007FFD",
"..	c #0180FF",
"+.	c #0055AA",
"@.	c #0073E6",
"#.	c #0683FF",
"$.	c #0C86FF",
"%.	c #0057AE",
"&.	c #0078F0",
"*.	c #188CFF",
"=.	c #1C8EFF",
"-.	c #005AB3",
";.	c #2B95FF",
">.	c #0052A4",
",.	c #0076EC",
"'.	c #198CFF",
").	c #2592FF",
"!.	c #0065C9",
"~.	c #007AF3",
"{.	c #0A85FF",
"].	c #0056AC",
"                                                ",
"  . . . . . .                     . . . . . .   ",
"  . + @ # $ % .                 . & * = - ; .   ",
"  . > , ' ) ! ~ .             . { ] ^ / ( ~ .   ",
"  . _ : < [ } | ~ .         . 1 2 3 4 5 = 6 .   ",
"  . _ _ 7 8 9 0 a % .     . b c d ^ e f d & .   ",
"  . _ _ _ g h 2 i 0 0 . . j k k 3 3 l m n o .   ",
"    . _ _ _ _ p q r * s t * * u l v w 8 x .     ",
"      . _ _ _ _ y w z r j ) u c A B C D .       ",
"        . _ _ _ _ E F G H I J K L M N .         ",
"          . _ _ _ _ O F P Q R S T U .           ",
"            . _ _ _ V W X Y o L < .             ",
"              . _ _ _ Z `  ...L .               ",
"                . _ _ +.@.#.$..                 ",
"                . _ _ %.&.*.=..                 ",
"                . _ _ -.w G ;..                 ",
"                . _ _ >.,.'.)..                 ",
"                . _ _ _ !.~.{..                 ",
"                . _ _ _ : + ~..                 ",
"                . _ _ _ V y h .                 ",
"                . _ _ _ _ 7 W .                 ",
"                . _ _ _ _ _ ]..                 ",
"                . . . . . . . .                 ",
"                                                "};
