/* XPM */
static const char * yx_small_col_xpm[] = {
"20 20 4 1",
" 	c None",
".	c #0E4403",
"+	c #800000",
"@	c #060EA3",
"       .            ",
"      ...           ",
"     . . .          ",
"       .            ",
"       .            ",
"       .            ",
"       .            ",
"       .            ",
"       .            ",
"       .            ",
"       .            ",
"       .         +  ",
"       .          + ",
"      @+++++++++++++",
"     @            + ",
"    @            +  ",
"@  @                ",
"@ @                 ",
"@@                  ",
"@@@@                "};
