/* XPM */
static const char * yz_small_xpm[] = {
"24 24 5 1",
" 	c None",
".	c #000000",
"+	c #FFFFFF",
"@	c #808080",
"#	c #C0C0C0",
" ...................... ",
".+++++++++++++++++++++@.",
".+.###.#########.###.@@.",
".+#.#.###########.#.#@@.",
".+##.#############.##@@.",
".+##.############.#.#@@.",
".+##.###########.###.@@.",
".+###################@@.",
".+##.######....######@@.",
".+#...#######..######@@.",
".+.#.#.#####.#.######@@.",
".+##.######.##.######@@.",
".+##.#####.##########@@.",
".+##.####.###########@@.",
".+##.###.############@@.",
".+##.##.#############@@.",
".+##.#.######.##.....@@.",
".+##..########.####.#@@.",
".+##............##.##@@.",
".+############.##.###@@.",
".+###########.##.....@@.",
".+@@@@@@@@@@@@@@@@@@@@@.",
" @@@@@@@@@@@@@@@@@@@@@@.",
" ...................... "};
