/* XPM */
static const char * z_small_xpm[] = {
"24 24 113 2",
"  	c None",
". 	c #000000",
"+ 	c #86860C",
"@ 	c #969614",
"# 	c #AAAA14",
"$ 	c #C2BE14",
"% 	c #D6D614",
"& 	c #E2DE2C",
"* 	c #E2E23C",
"= 	c #E6E63C",
"- 	c #E6E644",
"; 	c #EAEA44",
"> 	c #EAEA4C",
", 	c #EEEE4C",
"' 	c #EEEE54",
") 	c #F2F25C",
"! 	c #F2F26C",
"~ 	c #F6F68C",
"{ 	c #FAFA9C",
"] 	c #FAFAB4",
"^ 	c #FAFABC",
"/ 	c #FEFEFC",
"( 	c #7A7A0C",
"_ 	c #7E7A0C",
": 	c #8E8E14",
"< 	c #A2A214",
"[ 	c #BABA14",
"} 	c #CECE14",
"| 	c #DEDE1C",
"1 	c #E2E21C",
"2 	c #E2E22C",
"3 	c #E6E634",
"4 	c #EAEA3C",
"5 	c #F2EE5C",
"6 	c #F2F274",
"7 	c #F6F694",
"8 	c #FAFAAC",
"9 	c #FAFAC4",
"0 	c #FEFEC4",
"a 	c #7E7E0C",
"b 	c #827E0C",
"c 	c #AEAA14",
"d 	c #BEBE14",
"e 	c #C6C614",
"f 	c #E6E62C",
"g 	c #EEEA4C",
"h 	c #EEEE64",
"i 	c #F2F27C",
"j 	c #F6F69C",
"k 	c #9A9A14",
"l 	c #A6A614",
"m 	c #BAB614",
"n 	c #CACA14",
"o 	c #DADA14",
"p 	c #E6E624",
"q 	c #EEEE5C",
"r 	c #FAF68C",
"s 	c #F2F264",
"t 	c #F6F664",
"u 	c #B2B214",
"v 	c #DEDA14",
"w 	c #EAEA34",
"x 	c #EEEE34",
"y 	c #AEAE14",
"z 	c #C2C214",
"A 	c #D2D214",
"B 	c #E6E61C",
"C 	c #8A8A0C",
"D 	c #CECA14",
"E 	c #E6E234",
"F 	c #82820C",
"G 	c #929214",
"H 	c #C6C214",
"I 	c #DEDA1C",
"J 	c #D6D61C",
"K 	c #E2DE3C",
"L 	c #E6E654",
"M 	c #E6E65C",
"N 	c #EAE65C",
"O 	c #9E9E14",
"P 	c #DEDE34",
"Q 	c #E6E25C",
"R 	c #E6E66C",
"S 	c #EAEA74",
"T 	c #DADA2C",
"U 	c #E2E254",
"V 	c #E6E674",
"W 	c #EAEA7C",
"X 	c #8A8A14",
"Y 	c #D2D21C",
"Z 	c #DEDE44",
"` 	c #E2E26C",
" .	c #76760C",
"..	c #D2D224",
"+.	c #DADA44",
"@.	c #E2E264",
"#.	c #72720C",
"$.	c #76720C",
"%.	c #B6B614",
"&.	c #928E14",
"*.	c #DADA3C",
"=.	c #E2E25C",
"-.	c #EAEA8C",
";.	c #F2EEA4",
">.	c #F2F2B4",
",.	c #F6F6BC",
"'.	c #DADA34",
").	c #EEEE8C",
"!.	c #EEEE9C",
"~.	c #F6F2B4",
"{.	c #EAEA84",
"].	c #EEEE94",
"^.	c #DADA24",
"                                                ",
"  . . . . . . . . . . . . . . . . . . . . . .   ",
"  . + @ # $ % & * = - ; > , ' ) ! ~ { ] ^ / .   ",
"  . ( _ : < [ } | 1 2 3 4 > ' 5 6 7 8 ^ 9 0 .   ",
"  . ( ( a b @ c d e % | f 4 g h i j 8 ] ] 8 .   ",
"  . ( ( ( ( ( + k l m n o p ; q i 7 j j 7 r .   ",
"  . . . . . . . . . . . . o f ; q ! ! ! s t .   ",
"                      . u e v p w w w x x .     ",
"                    . @ y z A v 1 1 B B .       ",
"                  . C < [ } | 1 1 B B .         ",
"                . + k u D | 2 E 3 f .           ",
"              . F G # H I * - - - .             ",
"            . F : < [ J K L M N .               ",
"          . F : O u } P Q R S .                 ",
"        . + : O y e T U V W .                   ",
"      . F X @ l d Y Z ` W .                     ",
"    .  .( + @ # z ..+.@..                       ",
"  . #.$. .( X < %.e Y . . . . . . . . . . . .   ",
"  . #.#.$. .( &.< c [ J J *.=.V -.;.>.,.,./ .   ",
"  . #.#.#.$. .a : @ O # %.e J '.U V ).!.,.~..   ",
"  . #.#.#.#.$. .a F C G k l u [ } '.U R {.]..   ",
"  . #.#.#.#.#. . . . ._ F C G k l [ D ^.Z Q .   ",
"  . . . . . . . . . . . . . . . . . . . . . .   ",
"                                                "};
