/* XPM */
static const char * zoom_minus_xpm[] = {
"22 22 5 1",
" 	c None",
".	c #000000",
"+	c #FFFFFF",
"@	c #808080",
"#	c #800000",
"                      ",
"                      ",
"                      ",
"       ....           ",
"     ..++++..         ",
"    .@++++++@.        ",
"    .++++++++.        ",
"   .++++++++++.       ",
"   .++######++.       ",
"   .++######++.       ",
"   .++++++++++.       ",
"    .++++++++.        ",
"    .@++++++@.        ",
"     ..++++...@       ",
"       ....  @..      ",
"              ...     ",
"               ...    ",
"                ..    ",
"                      ",
"                      ",
"                      ",
"                      "};
