/* XPM */
static const char *fastRev_xpm []={
"19 19 9 1",
". c None",
"# c #000000",
"e c #040404",
"a c #080808",
"c c #0b0b0b",
"d c #0d0d0d",
"g c #0e0e0e",
"b c #141414",
"f c #232323",
"...................",
"...................",
"...................",
"........#.......a..",
".......##......b#..",
"......###.....c##..",
".....####....d###..",
"....#####...b####..",
"...######..e#####..",
"..#######.f######..",
"...######..e#####..",
"....#####...b####..",
".....####....g###..",
"......###.....c##..",
".......##......##..",
"........#.......#..",
"...................",
"...................",
"..................."};
