/* XPM */
static const char *fastFwd_xpm []={
"19 19 6 1",
". c None",
"# c #000000",
"c c #020202",
"d c #030303",
"b c #040404",
"a c #1f1f1f",
"...................",
"...................",
"...................",
"..#.......#........",
"..##......a#.......",
"..###.....a##......",
"..####....a###.....",
"..#####...a####....",
"..####b#..a#####...",
"..#####c#.a######..",
"..####b#..a#####...",
"..#####...a####....",
"..##d#....a###.....",
"..#c#.....a##......",
"..c#......a#.......",
"..#.......#........",
"...................",
"...................",
"..................."};
