/* XPM */
static const char *fwd_xpm []={
"19 19 8 1",
". c None",
"a c #000000",
"b c #020202",
"# c #040404",
"c c #050505",
"f c #060606",
"e c #0b0b0b",
"d c #303030",
"...................",
"...................",
"...................",
"......#............",
"......ab...........",
"......aaa..........",
"......aaac.........",
"......aaaaa........",
"......daaaaa.......",
"......daaaaae......",
"......aaaaaa.......",
"......aaaaa........",
"......aaaf.........",
"......aaa..........",
"......ab...........",
"......#............",
"...................",
"...................",
"..................."};
