/* XPM */
static const char *gotoMin_xpm []={
"19 19 6 1",
". c None",
"# c #000000",
"b c #030303",
"c c #0c0c0c",
"d c #0f0f0f",
"a c #101010",
"...................",
"...................",
"...................",
"....#........#.....",
"....#.......a#.....",
"....#......b##.....",
"....#.....c###.....",
"....#....d####.....",
"....#...######.....",
"....#..#######.....",
"....#...######.....",
"....#....#####.....",
"....#.....####.....",
"....#......###.....",
"....#.......##.....",
"....#........#.....",
"...................",
"...................",
"..................."};
