/* XPM */
static const char *gotoMax_xpm []={
"19 19 8 1",
". c None",
"# c #000000",
"b c #040404",
"f c #070707",
"c c #0c0c0c",
"d c #0f0f0f",
"a c #111111",
"e c #1e1e1e",
"...................",
"...................",
"...................",
".....#........#....",
".....#a.......#....",
".....##b......#....",
".....###c.....#....",
".....####d....#....",
".....######...#....",
".....######e..#....",
".....######...#....",
".....####d....#....",
".....###c.....#....",
".....##b......#....",
".....#a.......#....",
".....f........#....",
"...................",
"...................",
"..................."};
