/* XPM */
static const char *px_rot_xpm []={
"19 19 3 1",
". c None",
"# c #000000",
"a c #303030",
"...................",
"...................",
"........##.........",
".......#..#........",
"......#....#.......",
"......#..a.#.a.....",
"......#...a#a......",
"......#....#.......",
"......#............",
"..###############..",
"......#............",
"......#....#.......",
"......#....#.......",
"......#....#.......",
"......#....#.......",
".......#..#........",
"........##.........",
"...................",
"..................."};
