/* XPM */
static const char *py_rot_xpm []={
"19 19 2 1",
". c None",
"# c #303030",
"...................",
"...................",
".........#.........",
".........#.........",
".....#...#.........",
"......#..#.........",
"....####.#.####....",
"...#..#..#.....#...",
"..#..#...#......#..",
"..#......#......#..",
"...#.....#.....#...",
"....###########....",
".........#.........",
".........#.........",
".........#.........",
".........#.........",
".........#.........",
"...................",
"..................."};
