/* XPM */
static const char *nz_rot_xpm []={
"19 19 2 1",
". c None",
"# c #303030",
"...................",
"...................",
"......#####........",
".....#.....#.......",
"....#.......#......",
"...#.........#.....",
"..#...........#....",
"..#................",
"..#.....#..........",
"..#....###....#....",
"..#.....#....###...",
"..#.........#.#.#..",
"..#...........#....",
"...#.........#.....",
"....#.......#......",
".....#.....#.......",
"......#####........",
"...................",
"..................."};
