/* XPM */
static const char * ortho_xpm[] = {
"22 17 15 1",
" 	c None",
".	c #000000",
"+	c #F5680A",
"@	c #D00000",
"#	c #A80000",
"$	c #806840",
"%	c #D9D900",
"&	c #FF0000",
"*	c #808000",
"=	c #FFFF00",
"-	c #600000",
";	c #800000",
">	c #EAEA00",
",	c #FCB803",
"'	c #4F4F00",
"......................",
".+@@@@@@@@@####$$$$$$.",
".%+&&&&&&&&&&&#$****$.",
".%=+&&&&&&&&&&#$****$.",
".%==+&&&&&&&&&#$****-.",
".%===+&&&&&&&&@$****-.",
".%====+&&&&&&&@$****-.",
".%=====+&&&&&&@$***$-.",
".%======+&&&&&@$***;-.",
".%>======+&&&&@$***;-.",
".%>=======+&&&#$**$;-.",
".%>=======,+&&#$**;;-.",
".%>>=======,+&#$*$;;-.",
".%>>>=======,+#$*;;;-.",
".%>>>>>>=====,#$$;;;-.",
".%%%%%%%%%%%%%**'----.",
"......................"};
