/* XPM */
static char * yz_small_xpm[] = {
"21 21 5 1",
" 	c None",
".	c #333333",
"+	c #2D2D2D",
"@	c #303030",
"#	c #323232",
".   .                ",
" . .                 ",
"  .                  ",
"  .                  ",
"  .         .   .    ",
"             . .     ",
"    .         .      ",
"   ...       . +     ",
"  . . .     .   @    ",
"    .                ",
"    .  ....          ",
"    .    ..          ",
"    .   . .          ",
"    .  .  .          ",
"    . .     #        ",
"    ..       .       ",
"    ........... .....",
"             .     . ",
"            .     .  ",
"                 .   ",
"                ....."};
