/* XPM */
static const char * iguana_small_xpm[] = {
"24 15 207 2",
"  	c None",
". 	c #FEFEFE",
"+ 	c #F4F7F4",
"@ 	c #E6EDE5",
"# 	c #F6F8F6",
"$ 	c #EDF2ED",
"% 	c #ECF0EC",
"& 	c #FDFDFD",
"* 	c #CDDBCD",
"= 	c #7D9C7A",
"- 	c #789476",
"; 	c #71946E",
"> 	c #BCCDBA",
", 	c #F3F6F3",
"' 	c #C6D6C5",
") 	c #A3B4A2",
"! 	c #F9F9F9",
"~ 	c #DEE7DD",
"{ 	c #819B7F",
"] 	c #BABBBA",
"^ 	c #DEDEDE",
"/ 	c #D4D6D4",
"( 	c #809F7D",
"_ 	c #83A680",
": 	c #F2F3F2",
"< 	c #FCFDFC",
"[ 	c #B6CBB4",
"} 	c #748F71",
"| 	c #DFE4DE",
"1 	c #C0D0BF",
"2 	c #9CA89B",
"3 	c #F3F3F3",
"4 	c #F1F3F1",
"5 	c #A1B9A0",
"6 	c #80A37D",
"7 	c #DFE7DE",
"8 	c #FDFEFD",
"9 	c #91B38F",
"0 	c #548550",
"a 	c #B7BFB7",
"b 	c #FBFBFB",
"c 	c #BFCEBE",
"d 	c #AEB8AE",
"e 	c #F8F8F8",
"f 	c #A1B99F",
"g 	c #6FA46A",
"h 	c #CDE0CC",
"i 	c #FCFCFC",
"j 	c #C7D8C5",
"k 	c #69AA62",
"l 	c #A6BDA3",
"m 	c #F6F7F6",
"n 	c #D7E2D6",
"o 	c #A3B3A2",
"p 	c #C5D1C3",
"q 	c #6EA968",
"r 	c #8FC48A",
"s 	c #C9E3C6",
"t 	c #D3E4D1",
"u 	c #8AB686",
"v 	c #80B97A",
"w 	c #B4BDB3",
"x 	c #F3F6F2",
"y 	c #A5C6A3",
"z 	c #759D72",
"A 	c #C7D2C6",
"B 	c #F8F9F8",
"C 	c #F9FAF9",
"D 	c #B5C5B4",
"E 	c #B8C7B6",
"F 	c #F0F3F0",
"G 	c #D8DFD8",
"H 	c #8DB08A",
"I 	c #71AE6A",
"J 	c #B3DBAE",
"K 	c #CFE7CC",
"L 	c #94BE8F",
"M 	c #98BD95",
"N 	c #BBD9B8",
"O 	c #E0EBDF",
"P 	c #B0CBAE",
"Q 	c #467B41",
"R 	c #50724D",
"S 	c #8B9C8A",
"T 	c #EEEFEE",
"U 	c #BDC9BC",
"V 	c #A4B7A3",
"W 	c #C4D2C3",
"X 	c #FAFAFA",
"Y 	c #F6F6F6",
"Z 	c #CCD1CB",
"` 	c #7CAE77",
" .	c #A3CE9E",
"..	c #B5DAB0",
"+.	c #EFFAED",
"@.	c #F6FCF5",
"#.	c #D2E9CF",
"$.	c #B1D0AD",
"%.	c #739C6E",
"&.	c #C8CCC8",
"*.	c #EAEAEA",
"=.	c #F0F5F0",
"-.	c #EDEFED",
";.	c #C5CEC3",
">.	c #B2C3B1",
",.	c #EEF1EE",
"'.	c #C0D2BE",
").	c #5F9C59",
"!.	c #6BAC65",
"~.	c #6E9869",
"{.	c #7D967B",
"].	c #6D9B68",
"^.	c #7CAD76",
"/.	c #A0CD9A",
"(.	c #D4EDD0",
"_.	c #CCE8C9",
":.	c #B3D3AF",
"<.	c #D9E7D8",
"[.	c #E2EBE2",
"}.	c #D6DED6",
"|.	c #AEC0AD",
"1.	c #F7F7F7",
"2.	c #ECF0EB",
"3.	c #99AF97",
"4.	c #396B35",
"5.	c #648461",
"6.	c #70876E",
"7.	c #DBDBDB",
"8.	c #E3E3E3",
"9.	c #C0C6BF",
"0.	c #34702F",
"a.	c #578652",
"b.	c #6A8D66",
"c.	c #80B679",
"d.	c #C7E6C3",
"e.	c #C5D4C3",
"f.	c #DDE8DC",
"g.	c #EAEDEA",
"h.	c #AEC0AC",
"i.	c #E8ECE8",
"j.	c #F1F5F1",
"k.	c #ACC2AA",
"l.	c #8B9E89",
"m.	c #D2D4D2",
"n.	c #F0F0F0",
"o.	c #B2CBB0",
"p.	c #43763E",
"q.	c #A5ADA5",
"r.	c #E8E8E8",
"s.	c #85B380",
"t.	c #7A9E76",
"u.	c #DEE9DE",
"v.	c #E4E8E3",
"w.	c #B0C2AE",
"x.	c #C5D2C5",
"y.	c #C8CFC7",
"z.	c #CACFC9",
"A.	c #D0DBCF",
"B.	c #5B8057",
"C.	c #A5AFA4",
"D.	c #E1E4E1",
"E.	c #C1C7C1",
"F.	c #EDEDED",
"G.	c #D6E2D5",
"H.	c #FDFDFC",
"I.	c #EFF1EF",
"J.	c #B3C2B1",
"K.	c #D2DAD1",
"L.	c #E8EFE7",
"M.	c #E4ECE3",
"N.	c #C0D3BF",
"O.	c #DBE6DA",
"P.	c #DDE6DC",
"Q.	c #C3CFC2",
"R.	c #ADBCAC",
"S.	c #E6EDE6",
"T.	c #E3EBE2",
"U.	c #E9EFE8",
"V.	c #D8E4D7",
"W.	c #F3F7F3",
"X.	c #E0E9DF",
"Y.	c #C9D3C8",
"Z.	c #E8EBE8",
"`.	c #C0D3BE",
" +	c #8EB18C",
".+	c #BACFB9",
"++	c #C1D4C0",
"@+	c #A6C1A4",
"#+	c #9CBA9A",
"$+	c #769F73",
"%+	c #9EBC9C",
"&+	c #77A173",
"*+	c #AEC7AC",
"=+	c #7BA478",
"-+	c #C2D5C1",
";+	c #DEE8DD",
">+	c #CFDECF",
",+	c #B7CDB6",
"'+	c #8EB08B",
")+	c #B6CCB3",
"!+	c #94B591",
"~+	c #B7CDB5",
"{+	c #B9CEB7",
"]+	c #92B390",
"^+	c #95B593",
"/+	c #B8CEB6",
"(+	c #C1D4BF",
". . + @ # . . . . . . . $ % & . . . . . . . . . ",
"& * = - ; > , . . . . . ' ) ! . . . . . . . . . ",
"~ { ] ^ / ( _ : . . . < [ } | & . . . . . . . . ",
"1 2 3 . . 4 5 6 7 & . 8 9 0 a b . . . . . . . . ",
"c d & . . . e f g h i . j k l m . . . . . . . . ",
"n o ! . . . . i p q r s t u v w i . x y z A B . ",
"C D E F & . . . b G H I J K L M N O P Q R S T . ",
". B U V W X . . . . Y Z `  ...+.@.#.$.%.&.*.b . ",
"=.. i -.;.>.,.. . + '.).!.~.{.].^./.(._.:.<.B . ",
"[.. . . i }.|.1.. 2.3.4.5.6.7.8.9.0.a.b.c.d.e.X ",
"f.. . . . . g.h.i.j.k.l.m.n.i . o.p.q.r.A s.t.^ ",
"u.. . . . . & v.w.x.y.z.3 . . . A.B.C.b b D.E.F.",
"G.H.. . . . . . I.J.K.e L.M.N.O.P.Q.R.S.T.U.V.W.",
"X.8 . . . . . . . m Y.Z.`. +.+++@+#+$+%+&+*+=+-+",
";+. . . . . . . . . X e >+,+'+)+!+~+{+]+.+^+/+(+"};
