/* XPM */
static char * xz_small_xpm[] = {
"20 21 5 1",
" 	c None",
".	c #333333",
"+	c #323232",
"@	c #303030",
"#	c #2D2D2D",
".   .    .          ",
" . .    ...         ",
"  .    + . .        ",
" . .     .          ",
".   @    .          ",
"         .          ",
"         .          ",
"         .          ",
"         .       .  ",
"         .        . ",
"         ...........",
"     .  @         . ",
"     . @         +  ",
"     ..             ",
"     ....           ",
"                    ",
".   .          .....",
" . .              . ",
"  .              @  ",
"  .             #   ",
"  .            #####"};
