/* XPM */
static char * yx_small_xpm[] = {
"20 21 3 1",
" 	c None",
".	c #333333",
"+	c #323232",
".   .    .          ",
" + +    ...         ",
"  .    . . .        ",
"  .      .          ",
"  .      .          ",
"         .          ",
"         .          ",
"         .          ",
"         .       .  ",
"         .        . ",
"         ...........",
"     .  .         . ",
"     . .         .  ",
"     ..             ",
"     ....           ",
"                    ",
".....          .   .",
"   .            . . ",
"  .              .  ",
" .              . . ",
".....          .   ."};
